<?xml version="1.0" standalone="no"?>
<!DOCTYPE svg PUBLIC "-//W3C//DTD SVG 20010904//EN"
 "http://www.w3.org/TR/2001/REC-SVG-20010904/DTD/svg10.dtd">
<svg version="1.0" xmlns="http://www.w3.org/2000/svg"
 width="508.000000pt" height="351.000000pt" viewBox="0 0 508.000000 351.000000"
 preserveAspectRatio="xMidYMid meet">

<g transform="translate(0.000000,351.000000) scale(0.100000,-0.100000)"
fill="#000000" stroke="none">
<path d="M1155 3470 c-3 -5 1 -10 10 -10 9 0 13 -4 10 -10 -3 -5 2 -10 12 -10
15 0 16 -2 3 -10 -13 -8 -12 -10 3 -10 9 0 17 -4 17 -10 0 -5 7 -10 16 -10 8
0 12 -4 9 -10 -3 -5 1 -10 10 -10 9 0 13 -4 10 -10 -3 -5 2 -10 12 -10 15 0
16 -2 3 -10 -8 -5 -13 -11 -10 -12 3 -2 679 -5 1502 -8 l1496 -5 27 -25 c58
-53 55 6 55 -1220 l0 -1130 -330 0 -330 0 75 -75 75 -75 280 0 280 0 197 -157
197 -158 -312 -3 c-172 -1 -312 -5 -312 -7 0 -3 29 -35 65 -70 l65 -65 316 0
316 0 -7 -47 c-8 -56 -27 -86 -70 -113 -29 -18 -49 -20 -199 -20 -91 0 -166
-2 -166 -5 0 -3 32 -38 72 -77 l72 -71 103 6 c228 13 333 119 333 335 0 72 -3
92 -18 108 -10 10 -138 116 -285 234 l-267 215 0 1147 c0 816 -3 1162 -11
1200 -22 101 -106 191 -204 217 -54 15 -3111 15 -3120 1z"/>
<path d="M2506 3243 c-8 -9 85 -104 96 -97 13 9 9 58 -8 82 -15 22 -71 31 -88
15z"/>
<path d="M2845 2805 c-16 -7 -40 -22 -52 -32 l-22 -18 155 -138 c86 -75 160
-134 166 -131 12 8 29 49 38 97 17 86 -33 181 -114 218 -48 22 -129 24 -171 4z"/>
<path d="M2385 2322 l-301 -337 -88 -253 c-49 -139 -87 -254 -85 -256 2 -2
112 49 245 114 l241 117 302 337 c166 186 301 341 299 345 -5 12 -298 271
-306 270 -4 0 -142 -152 -307 -337z m-180 -391 c23 -13 31 -25 33 -53 2 -27 7
-35 18 -31 27 10 65 -8 84 -40 11 -17 20 -38 20 -45 0 -10 -260 -142 -279
-142 -3 0 -17 9 -29 18 l-24 18 53 152 c59 167 54 162 124 123z"/>
</g>
</svg>
